<svg width="72" height="72" viewBox="0 0 72 72" fill="none" xmlns="http://www.w3.org/2000/svg">
<path d="M57 20.6V15H15V20.6H16.4V48.6H15.7C15.3136 48.6 15 48.9129 15 49.3C15 49.6871 15.3136 50 15.7 50H16.4H35.3V51.4C35.3 51.4329 35.3147 51.4616 35.3189 51.4938C34.1051 51.7997 33.2 52.8917 33.2 54.2C33.2 55.7442 34.4558 57 36 57C37.5442 57 38.8 55.7442 38.8 54.2C38.8 52.8917 37.8949 51.7997 36.6811 51.4938C36.6853 51.4616 36.7 51.4329 36.7 51.4V50H55.6H56.3C56.6864 50 57 49.6871 57 49.3C57 48.9129 56.6864 48.6 56.3 48.6H55.6V20.6H57ZM37.4 54.2C37.4 54.9721 36.7721 55.6 36 55.6C35.2279 55.6 34.6 54.9721 34.6 54.2C34.6 53.4279 35.2279 52.8 36 52.8C36.7721 52.8 37.4 53.4279 37.4 54.2ZM16.4 16.4H55.6V19.2H16.4V16.4ZM54.2 48.6H17.8V20.6H54.2V48.6Z" fill="#111827" stroke="#111827"/>
<path d="M50 43.7001H39.5C39.1136 43.7001 38.8 44.013 38.8 44.4001C38.8 44.7872 39.1136 45.1001 39.5 45.1001H50C50.3864 45.1001 50.7 44.7872 50.7 44.4001C50.7 44.013 50.3864 43.7001 50 43.7001Z" fill="#111827" stroke="#111827"/>
<path d="M21.9998 40.1999H28.9998C29.3862 40.1999 29.6998 39.887 29.6998 39.4999C29.6998 39.1128 29.3862 38.7999 28.9998 38.7999H21.9998C21.6134 38.7999 21.2998 39.1128 21.2998 39.4999C21.2998 39.887 21.6134 40.1999 21.9998 40.1999Z" fill="#111827" stroke="#111827"/>
<path d="M36.0003 40.1999H46.5003C46.8867 40.1999 47.2003 39.887 47.2003 39.4999C47.2003 39.1128 46.8867 38.7999 46.5003 38.7999H36.0003C35.6139 38.7999 35.3003 39.1128 35.3003 39.4999C35.3003 39.887 35.6139 40.1999 36.0003 40.1999Z" fill="#111827" stroke="#111827"/>
<path d="M32.0028 39.003C31.8768 39.1353 31.7998 39.3103 31.7998 39.5C31.7998 39.682 31.8768 39.864 32.0028 39.997C32.1358 40.123 32.3178 40.2 32.4998 40.2C32.6818 40.2 32.8638 40.123 32.9968 39.997C33.1228 39.864 33.1998 39.682 33.1998 39.5C33.1998 39.318 33.1228 39.1353 32.9968 39.003C32.7378 38.744 32.2618 38.744 32.0028 39.003Z" fill="#111827" stroke="#111827"/>
<path d="M36.0003 43.7001H25.5003C25.1139 43.7001 24.8003 44.013 24.8003 44.4001C24.8003 44.7872 25.1139 45.1001 25.5003 45.1001H36.0003C36.3867 45.1001 36.7003 44.7872 36.7003 44.4001C36.7003 44.013 36.3867 43.7001 36.0003 43.7001Z" fill="#111827" stroke="#111827"/>
<path d="M21.9998 45.1001C22.1818 45.1001 22.3638 45.0231 22.4968 44.8971C22.6228 44.7641 22.6998 44.5821 22.6998 44.4001C22.6998 44.2181 22.6228 44.0354 22.4968 43.9101C22.2378 43.6441 21.7688 43.6441 21.5028 43.9031C21.3768 44.0354 21.2998 44.2181 21.2998 44.4001C21.2998 44.5821 21.3768 44.7641 21.5028 44.8971C21.6358 45.0231 21.8178 45.1001 21.9998 45.1001Z" fill="#111827" stroke="#111827"/>
<path d="M49.503 39.003C49.377 39.1353 49.3 39.3103 49.3 39.5C49.3 39.682 49.377 39.864 49.503 39.997C49.636 40.123 49.818 40.2 50 40.2C50.182 40.2 50.364 40.123 50.497 39.997C50.623 39.864 50.7 39.682 50.7 39.5C50.7 39.318 50.623 39.1353 50.497 39.003C50.238 38.744 49.769 38.744 49.503 39.003Z" fill="#111827" stroke="#111827"/>
<path d="M50 29H39.5C39.1136 29 38.8 29.3129 38.8 29.7C38.8 30.0871 39.1136 30.4 39.5 30.4H50C50.3864 30.4 50.7 30.0871 50.7 29.7C50.7 29.3129 50.3864 29 50 29Z" fill="#111827" stroke="#111827"/>
<path d="M49.9998 33.9H42.9998C42.6134 33.9 42.2998 34.2129 42.2998 34.6C42.2998 34.9871 42.6134 35.3 42.9998 35.3H49.9998C50.3862 35.3 50.6998 34.9871 50.6998 34.6C50.6998 34.2129 50.3862 33.9 49.9998 33.9Z" fill="#111827" stroke="#111827"/>
<path d="M36.0003 35.3H37.4003C37.7867 35.3 38.1003 34.9871 38.1003 34.6C38.1003 34.2129 37.7867 33.9 37.4003 33.9H36.0003C35.6139 33.9 35.3003 34.2129 35.3003 34.6C35.3003 34.9871 35.6139 35.3 36.0003 35.3Z" fill="#111827" stroke="#111827"/>
<path d="M36.0003 25.5H46.5003C46.8867 25.5 47.2003 25.1871 47.2003 24.8C47.2003 24.4129 46.8867 24.1 46.5003 24.1H36.0003C35.6139 24.1 35.3003 24.4129 35.3003 24.8C35.3003 25.1871 35.6139 25.5 36.0003 25.5Z" fill="#111827" stroke="#111827"/>
<path d="M50 25.4999C50.182 25.4999 50.364 25.4229 50.497 25.2969C50.63 25.1639 50.7 24.9819 50.7 24.7999C50.7 24.6179 50.63 24.4352 50.497 24.3029C50.231 24.0439 49.762 24.0439 49.503 24.3029C49.377 24.4352 49.3 24.6179 49.3 24.7999C49.3 24.9819 49.377 25.1639 49.503 25.2969C49.636 25.4229 49.818 25.4999 50 25.4999Z" fill="#111827" stroke="#111827"/>
<path d="M36.203 29.203C36.077 29.3353 36 29.5103 36 29.7C36 29.882 36.077 30.064 36.203 30.197C36.336 30.323 36.518 30.4 36.7 30.4C36.882 30.4 37.064 30.323 37.197 30.197C37.323 30.064 37.4 29.882 37.4 29.7C37.4 29.5103 37.323 29.3353 37.197 29.203C36.931 28.944 36.469 28.944 36.203 29.203Z" fill="#111827" stroke="#111827"/>
<path d="M39.7028 34.1029C39.5768 34.2352 39.4998 34.4179 39.4998 34.5999C39.4998 34.7819 39.5768 34.9639 39.7028 35.0969C39.8358 35.2229 40.0178 35.2999 40.1998 35.2999C40.3818 35.2999 40.5638 35.2229 40.6968 35.0969C40.8228 34.9639 40.8998 34.7819 40.8998 34.5999C40.8998 34.4179 40.8228 34.2352 40.6968 34.1029C40.4378 33.8439 39.9618 33.8439 39.7028 34.1029Z" fill="#111827" stroke="#111827"/>
<path d="M32.4998 24.1H21.2998V35.3H32.4998V24.1ZM31.0998 33.9H22.6998V25.5H31.0998V33.9Z" fill="#111827" stroke="#111827"/>
</svg>
