<svg width="72" height="72" viewBox="0 0 72 72" fill="none" xmlns="http://www.w3.org/2000/svg">
<path d="M44.75 19.375C44.75 16.9626 42.7874 15 40.375 15H31.625C29.2126 15 27.25 16.9626 27.25 19.375V22H15V36.875H16.75V57H55.25V36.875H57V22H44.75V19.375ZM29 19.375C29 17.9277 30.1777 16.75 31.625 16.75H40.375C41.8223 16.75 43 17.9277 43 19.375V22H29V19.375ZM18.5 50.9538C20.6936 51.3239 22.4253 53.0564 22.7962 55.25H18.5V50.9538ZM49.2038 55.25C49.5739 53.0564 51.3064 51.3247 53.5 50.9538V55.25H49.2038ZM53.5 49.1854C50.3395 49.5817 47.8326 52.0895 47.4354 55.25H24.5646C24.1674 52.0895 21.6605 49.5826 18.5 49.1854V36.875H30.75V42.125H35.125V43.875H36.875V42.125H41.25V36.875H53.5V49.1854ZM35.125 38.625V40.375H32.5V36.875H39.5V40.375H36.875V38.625H35.125ZM55.25 35.125H41.25H30.75H16.75V23.75H55.25V35.125Z" fill="#111827" stroke="#111827"/>
</svg>
