<svg width="66" height="67" viewBox="0 0 66 67" fill="none" xmlns="http://www.w3.org/2000/svg">
<path d="M56.814 21.4999H60C61.5913 21.4999 63.1174 22.1321 64.2426 23.2573C65.3679 24.3825 66 25.9086 66 27.4999V39.4999C66 41.0912 65.3679 42.6174 64.2426 43.7426C63.1174 44.8678 61.5913 45.4999 60 45.4999H56.814C56.0826 51.2998 53.2598 56.6335 48.8752 60.4999C44.4907 64.3664 38.8458 66.4998 33 66.4999V60.4999C37.7739 60.4999 42.3523 58.6035 45.7279 55.2279C49.1036 51.8522 51 47.2738 51 42.4999V24.4999C51 19.726 49.1036 15.1477 45.7279 11.772C42.3523 8.39637 37.7739 6.49994 33 6.49994C28.2261 6.49994 23.6477 8.39637 20.2721 11.772C16.8964 15.1477 15 19.726 15 24.4999V45.4999H6C4.4087 45.4999 2.88258 44.8678 1.75736 43.7426C0.632141 42.6174 0 41.0912 0 39.4999V27.4999C0 25.9086 0.632141 24.3825 1.75736 23.2573C2.88258 22.1321 4.4087 21.4999 6 21.4999H9.186C9.91809 15.7006 12.7412 10.3678 17.1257 6.50197C21.5102 2.63618 27.1547 0.503174 33 0.503174C38.8453 0.503174 44.4898 2.63618 48.8743 6.50197C53.2588 10.3678 56.0819 15.7006 56.814 21.4999ZM6 27.4999V39.4999H9V27.4999H6ZM57 27.4999V39.4999H60V27.4999H57ZM20.28 44.8549L23.46 39.7669C26.3192 41.558 29.6261 42.5054 33 42.4999C36.3739 42.5054 39.6808 41.558 42.54 39.7669L45.72 44.8549C41.9078 47.2434 37.4986 48.5069 33 48.4999C28.5014 48.5069 24.0922 47.2434 20.28 44.8549Z" fill="#111827"/>
</svg>
