<svg width="60" height="61" viewBox="0 0 60 61" fill="none" xmlns="http://www.w3.org/2000/svg">
<path d="M30 60.5C13.431 60.5 0 47.069 0 30.5C0 13.931 13.431 0.5 30 0.5C46.569 0.5 60 13.931 60 30.5C60 47.069 46.569 60.5 30 60.5ZM30 54.5C36.3652 54.5 42.4697 51.9714 46.9706 47.4706C51.4714 42.9697 54 36.8652 54 30.5C54 24.1348 51.4714 18.0303 46.9706 13.5294C42.4697 9.02856 36.3652 6.5 30 6.5C23.6348 6.5 17.5303 9.02856 13.0294 13.5294C8.52856 18.0303 6 24.1348 6 30.5C6 36.8652 8.52856 42.9697 13.0294 47.4706C17.5303 51.9714 23.6348 54.5 30 54.5ZM15 29L42 18.5L31.5 45.506L27 33.5L15 29Z" fill="#111827"/>
</svg>
