<svg width="65" height="47" viewBox="0 0 65 47" fill="none" xmlns="http://www.w3.org/2000/svg">
<path d="M30 27.499L2.331 45.946C2.10512 46.0963 1.84269 46.1825 1.57167 46.1955C1.30066 46.2084 1.0312 46.1476 0.791998 46.0196C0.552797 45.8915 0.352812 45.701 0.213342 45.4682C0.0738721 45.2355 0.000140161 44.9693 0 44.698V2.30196C0.000140161 2.03063 0.0738721 1.76443 0.213342 1.53169C0.352812 1.29895 0.552797 1.1084 0.791998 0.980338C1.0312 0.852272 1.30066 0.791483 1.57167 0.804448C1.84269 0.817413 2.10512 0.903646 2.331 1.05396L30 19.501V2.30196C30.0001 2.03063 30.0739 1.76443 30.2133 1.53169C30.3528 1.29895 30.5528 1.1084 30.792 0.980338C31.0312 0.852272 31.3007 0.791483 31.5717 0.804448C31.8427 0.817413 32.1051 0.903646 32.331 1.05396L64.128 22.252C64.3334 22.3889 64.5019 22.5745 64.6184 22.7922C64.7349 23.0099 64.7958 23.253 64.7958 23.5C64.7958 23.7469 64.7349 23.99 64.6184 24.2077C64.5019 24.4254 64.3334 24.611 64.128 24.748L32.331 45.946C32.1051 46.0963 31.8427 46.1825 31.5717 46.1955C31.3007 46.2084 31.0312 46.1476 30.792 46.0196C30.5528 45.8915 30.3528 45.701 30.2133 45.4682C30.0739 45.2355 30.0001 44.9693 30 44.698V27.499ZM25.182 23.5L6 10.711V36.289L25.182 23.5ZM36 10.711V36.289L55.182 23.5L36 10.711Z" fill="#111827"/>
</svg>
