<svg width="42" height="44" viewBox="0 0 42 40" fill="#5D33D5" xmlns="http://www.w3.org/2000/svg">
<path d="M8.20616 28.718H37.4103V4.10256H4.58975V31.559L8.20616 28.718ZM9.62564 32.8205L0.487183 40V2.05128C0.487183 1.50725 0.703299 0.985497 1.08799 0.600807C1.47268 0.216117 1.99443 0 2.53846 0H39.4615C40.0056 0 40.5273 0.216117 40.912 0.600807C41.2967 0.985497 41.5128 1.50725 41.5128 2.05128V30.7692C41.5128 31.3133 41.2967 31.835 40.912 32.2197C40.5273 32.6044 40.0056 32.8205 39.4615 32.8205H9.62564ZM18.9487 22.5641H23.0513V26.6667H18.9487V22.5641ZM13.958 11.9241C14.2245 10.5903 14.8642 9.35968 15.8029 8.37534C16.7415 7.39099 17.9403 6.69342 19.2599 6.36381C20.5795 6.0342 21.9656 6.0861 23.2568 6.51347C24.548 6.94084 25.6914 7.7261 26.5538 8.77788C27.4161 9.82967 27.9621 11.1047 28.1281 12.4547C28.2941 13.8046 28.0734 15.174 27.4916 16.4034C26.9097 17.6328 25.9907 18.6717 24.8415 19.3992C23.6923 20.1267 22.3601 20.5129 21 20.5128H18.9487V16.4103H21C21.5827 16.4102 22.1535 16.2447 22.6458 15.933C23.1381 15.6213 23.5318 15.1761 23.7811 14.6494C24.0303 14.1227 24.1249 13.536 24.0537 12.9576C23.9826 12.3793 23.7486 11.833 23.3791 11.3824C23.0097 10.9318 22.5198 10.5953 21.9666 10.4122C21.4134 10.2291 20.8196 10.2069 20.2542 10.3481C19.6889 10.4893 19.1752 10.7882 18.7731 11.2099C18.3709 11.6316 18.0968 12.1588 17.9826 12.7303L13.958 11.9241Z" fill="#F9F9FA"/>
</svg>
