<svg width="34" height="34" viewBox="0 0 34 34" fill="none" xmlns="http://www.w3.org/2000/svg">
<path d="M17 0.333313C21.5283 0.333313 22.0933 0.34998 23.87 0.433313C25.645 0.516646 26.8533 0.79498 27.9166 1.20831C29.0166 1.63165 29.9433 2.20498 30.87 3.12998C31.7175 3.96314 32.3732 4.97096 32.7916 6.08331C33.2033 7.14498 33.4833 8.35498 33.5667 10.13C33.645 11.9066 33.6666 12.4716 33.6666 17C33.6666 21.5283 33.65 22.0933 33.5667 23.87C33.4833 25.645 33.2033 26.8533 32.7916 27.9166C32.3744 29.0296 31.7185 30.0377 30.87 30.87C30.0366 31.7172 29.0288 32.3729 27.9166 32.7916C26.855 33.2033 25.645 33.4833 23.87 33.5667C22.0933 33.645 21.5283 33.6666 17 33.6666C12.4716 33.6666 11.9066 33.65 10.13 33.5667C8.35498 33.4833 7.14665 33.2033 6.08331 32.7916C4.97052 32.3741 3.96253 31.7182 3.12998 30.87C2.28232 30.037 1.62653 29.0291 1.20831 27.9166C0.79498 26.855 0.516646 25.645 0.433313 23.87C0.35498 22.0933 0.333313 21.5283 0.333313 17C0.333313 12.4716 0.34998 11.9066 0.433313 10.13C0.516646 8.35331 0.79498 7.14665 1.20831 6.08331C1.62537 4.97028 2.28132 3.96218 3.12998 3.12998C3.96276 2.28203 4.97069 1.6262 6.08331 1.20831C7.14665 0.79498 8.35331 0.516646 10.13 0.433313C11.9066 0.35498 12.4716 0.333313 17 0.333313ZM17 8.66665C14.7898 8.66665 12.6702 9.54462 11.1074 11.1074C9.54462 12.6702 8.66665 14.7898 8.66665 17C8.66665 19.2101 9.54462 21.3297 11.1074 22.8925C12.6702 24.4553 14.7898 25.3333 17 25.3333C19.2101 25.3333 21.3297 24.4553 22.8925 22.8925C24.4553 21.3297 25.3333 19.2101 25.3333 17C25.3333 14.7898 24.4553 12.6702 22.8925 11.1074C21.3297 9.54462 19.2101 8.66665 17 8.66665ZM27.8333 8.24998C27.8333 7.69745 27.6138 7.16754 27.2231 6.77684C26.8324 6.38614 26.3025 6.16665 25.75 6.16665C25.1974 6.16665 24.6675 6.38614 24.2768 6.77684C23.8861 7.16754 23.6666 7.69745 23.6666 8.24998C23.6666 8.80251 23.8861 9.33242 24.2768 9.72312C24.6675 10.1138 25.1974 10.3333 25.75 10.3333C26.3025 10.3333 26.8324 10.1138 27.2231 9.72312C27.6138 9.33242 27.8333 8.80251 27.8333 8.24998ZM17 12C18.3261 12 19.5978 12.5268 20.5355 13.4644C21.4732 14.4021 22 15.6739 22 17C22 18.3261 21.4732 19.5978 20.5355 20.5355C19.5978 21.4732 18.3261 22 17 22C15.6739 22 14.4021 21.4732 13.4644 20.5355C12.5268 19.5978 12 18.3261 12 17C12 15.6739 12.5268 14.4021 13.4644 13.4644C14.4021 12.5268 15.6739 12 17 12Z" fill="#4C5567"/>
</svg>
