<svg width="33" height="31" viewBox="0 0 33 31" fill="none" xmlns="http://www.w3.org/2000/svg">
<path d="M7.56669 4.33335C7.56625 5.21741 7.21464 6.06508 6.5892 6.68989C5.96377 7.3147 5.11575 7.66546 4.23169 7.66502C3.34764 7.66458 2.49997 7.31296 1.87516 6.68753C1.25035 6.0621 0.899583 5.21407 0.900025 4.33002C0.900467 3.44596 1.25208 2.59829 1.87751 1.97348C2.50295 1.34868 3.35097 0.99791 4.23502 0.998352C5.11908 0.998794 5.96675 1.35041 6.59156 1.97584C7.21637 2.60128 7.56713 3.4493 7.56669 4.33335ZM7.66669 10.1334H1.00002V31H7.66669V10.1334ZM18.2 10.1334H11.5667V31H18.1334V20.05C18.1334 13.95 26.0834 13.3834 26.0834 20.05V31H32.6667V17.7834C32.6667 7.50002 20.9 7.88335 18.1334 12.9334L18.2 10.1334Z" fill="#4C5567"/>
</svg>
