<svg width="54" height="61" viewBox="0 0 54 61" fill="none" xmlns="http://www.w3.org/2000/svg">
<path d="M51 60.5H3C2.20435 60.5 1.44129 60.1839 0.87868 59.6213C0.31607 59.0587 0 58.2957 0 57.5V3.5C0 2.70435 0.31607 1.94129 0.87868 1.37868C1.44129 0.81607 2.20435 0.5 3 0.5H51C51.7957 0.5 52.5587 0.81607 53.1213 1.37868C53.6839 1.94129 54 2.70435 54 3.5V57.5C54 58.2957 53.6839 59.0587 53.1213 59.6213C52.5587 60.1839 51.7957 60.5 51 60.5ZM48 54.5V6.5H6V54.5H48ZM15 15.5H39V21.5H15V15.5ZM15 27.5H39V33.5H15V27.5ZM15 39.5H30V45.5H15V39.5Z" fill="#111827"/>
</svg>
