<svg width="72" height="72" viewBox="0 0 72 72" fill="none" xmlns="http://www.w3.org/2000/svg">
<path d="M0 8C0 3.58172 3.58172 0 8 0H64C68.4183 0 72 3.58172 72 8V64C72 68.4183 68.4183 72 64 72H8C3.58172 72 0 68.4183 0 64V8Z" fill="#5D33D5"/>
<path d="M45.2524 42.3581V55.0746C45.2524 55.2383 45.209 55.3991 45.1266 55.5405C45.0442 55.682 44.9257 55.799 44.7833 55.8797C44.6409 55.9604 44.4796 56.0019 44.3159 55.9999C44.1522 55.9979 43.992 55.9526 43.8516 55.8684L36 51.1571L28.1485 55.8684C28.0079 55.9526 27.8475 55.998 27.6836 55.9999C27.5198 56.0018 27.3584 55.9602 27.2159 55.8793C27.0734 55.7983 26.955 55.681 26.8727 55.5393C26.7904 55.3976 26.7473 55.2366 26.7476 55.0727V42.36C24.3534 40.4431 22.6137 37.8298 21.7689 34.8814C20.9241 31.9329 21.0159 28.7949 22.0317 25.9009C23.0475 23.0069 24.9371 20.4999 27.4393 18.7263C29.9416 16.9526 32.9329 16 36 16C39.0671 16 42.0584 16.9526 44.5607 18.7263C47.0629 20.4999 48.9525 23.0069 49.9683 25.9009C50.9841 28.7949 51.0759 31.9329 50.2311 34.8814C49.3863 37.8298 47.6466 40.4431 45.2524 42.36V42.3581ZM30.4486 44.5287V50.1727L36 46.8418L41.5514 50.1727V44.5287C39.7876 45.2421 37.9026 45.6078 36 45.6057C34.0974 45.6078 32.2124 45.2421 30.4486 44.5287ZM36 41.9048C38.9447 41.9048 41.7687 40.735 43.8509 38.6528C45.9331 36.5706 47.1028 33.7466 47.1028 30.8019C47.1028 27.8573 45.9331 25.0332 43.8509 22.951C41.7687 20.8689 38.9447 19.6991 36 19.6991C33.0554 19.6991 30.2313 20.8689 28.1491 22.951C26.0669 25.0332 24.8972 27.8573 24.8972 30.8019C24.8972 33.7466 26.0669 36.5706 28.1491 38.6528C30.2313 40.735 33.0554 41.9048 36 41.9048Z" fill="#F9F9FA"/>
</svg>
