<svg width="48" height="66" viewBox="0 0 48 66" fill="none" xmlns="http://www.w3.org/2000/svg">
<path d="M39 43.2349V63.8509C39.0001 64.1163 38.9297 64.377 38.7961 64.6063C38.6625 64.8356 38.4705 65.0254 38.2396 65.1562C38.0087 65.2871 37.7472 65.3543 37.4818 65.3511C37.2164 65.3479 36.9567 65.2743 36.729 65.1379L24 57.4999L11.271 65.1379C11.0431 65.2745 10.7831 65.3481 10.5174 65.3511C10.2518 65.3542 9.99012 65.2867 9.75913 65.1555C9.52814 65.0243 9.33614 64.8341 9.20276 64.6044C9.06939 64.3746 8.99941 64.1136 9 63.8479V43.2379C5.11844 40.1302 2.29798 35.8936 0.928377 31.1135C-0.441223 26.3335 -0.292332 21.2461 1.35447 16.5543C3.00128 11.8626 6.06469 7.79817 10.1214 4.92276C14.178 2.04735 19.0276 0.50293 24 0.50293C28.9724 0.50293 33.822 2.04735 37.8787 4.92276C41.9353 7.79817 44.9987 11.8626 46.6455 16.5543C48.2923 21.2461 48.4412 26.3335 47.0716 31.1135C45.702 35.8936 42.8816 40.1302 39 43.2379V43.2349ZM15 46.7539V55.9039L24 50.5039L33 55.9039V46.7539C30.1405 47.9104 27.0845 48.5033 24 48.4999C20.9155 48.5033 17.8595 47.9104 15 46.7539ZM24 42.4999C28.7739 42.4999 33.3523 40.6035 36.7279 37.2278C40.1036 33.8522 42 29.2738 42 24.4999C42 19.726 40.1036 15.1477 36.7279 11.772C33.3523 8.39635 28.7739 6.49992 24 6.49992C19.2261 6.49992 14.6477 8.39635 11.2721 11.772C7.89642 15.1477 6 19.726 6 24.4999C6 29.2738 7.89642 33.8522 11.2721 37.2278C14.6477 40.6035 19.2261 42.4999 24 42.4999Z" fill="#111827"/>
</svg>
