<svg width="60" height="64" viewBox="0 0 60 64" fill="none" xmlns="http://www.w3.org/2000/svg">
<path d="M6 15.929V54.401L21.195 47.891L39.195 56.891L54 50.54V12.071L57.909 10.397C58.1373 10.2992 58.3862 10.2595 58.6336 10.2817C58.881 10.3038 59.119 10.387 59.3262 10.5238C59.5335 10.6606 59.7036 10.8467 59.8212 11.0654C59.9388 11.2842 60.0002 11.5287 60 11.777V54.5L39 63.5L21 54.5L2.091 62.603C1.86274 62.7009 1.61376 62.7405 1.3664 62.7184C1.11904 62.6963 0.881038 62.6131 0.673761 62.4763C0.466485 62.3395 0.296417 62.1534 0.178821 61.9346C0.0612246 61.7159 -0.000220369 61.4714 5.93851e-07 61.223V18.5L6 15.929ZM42.729 31.229L30 43.955L17.271 31.229C14.754 28.7116 13.0399 25.5043 12.3456 22.0127C11.6514 18.5211 12.008 14.9021 13.3705 11.6132C14.7329 8.3243 17.04 5.51326 20.0001 3.53553C22.9601 1.5578 26.4401 0.502197 30 0.502197C33.5599 0.502197 37.0399 1.5578 39.9999 3.53553C42.96 5.51326 45.2671 8.3243 46.6295 11.6132C47.992 14.9021 48.3486 18.5211 47.6544 22.0127C46.9601 25.5043 45.246 28.7116 42.729 31.229ZM30 35.471L38.484 26.984C40.1626 25.306 41.3058 23.1678 41.7692 20.8399C42.2325 18.512 41.995 16.099 41.0869 13.9061C40.1788 11.7132 38.6407 9.83883 36.6672 8.5201C34.6938 7.20136 32.3735 6.49748 30 6.49748C27.6265 6.49748 25.3062 7.20136 23.3328 8.5201C21.3593 9.83883 19.8212 11.7132 18.9131 13.9061C18.005 16.099 17.7675 18.512 18.2308 20.8399C18.6942 23.1678 19.8374 25.306 21.516 26.984L30 35.471Z" fill="#111827"/>
</svg>
