<svg width="35" height="28" viewBox="0 0 35 28" fill="none" xmlns="http://www.w3.org/2000/svg">
<path d="M34.9367 3.42667C33.6643 3.98949 32.315 4.35912 30.9334 4.52333C32.3896 3.65239 33.4795 2.28169 34 0.666666C32.6334 1.48 31.135 2.05 29.5734 2.35833C28.5244 1.23596 27.134 0.491605 25.6183 0.240974C24.1026 -0.0096564 22.5466 0.247485 21.1921 0.972421C19.8377 1.69736 18.7607 2.84947 18.1285 4.24965C17.4964 5.64984 17.3446 7.21963 17.6967 8.715C14.9252 8.57609 12.2139 7.85587 9.73884 6.60111C7.26376 5.34634 5.08024 3.58508 3.33003 1.43167C2.71051 2.49575 2.38495 3.70538 2.38669 4.93667C2.38669 7.35333 3.61669 9.48833 5.48669 10.7383C4.38004 10.7035 3.29775 10.4046 2.33003 9.86667V9.95333C2.33036 11.5628 2.88731 13.1227 3.90644 14.3684C4.92557 15.6142 6.34416 16.4691 7.92169 16.7883C6.89438 17.0667 5.8172 17.1078 4.77169 16.9083C5.21647 18.2937 6.08337 19.5053 7.25101 20.3735C8.41865 21.2417 9.82857 21.723 11.2834 21.75C9.83749 22.8855 8.18199 23.725 6.41149 24.2203C4.641 24.7156 2.79024 24.8571 0.965027 24.6367C4.15119 26.6857 7.86019 27.7735 11.6484 27.77C24.47 27.77 31.4817 17.1483 31.4817 7.93667C31.4817 7.63667 31.4734 7.33333 31.46 7.03667C32.8248 6.05028 34.0027 4.82836 34.9384 3.42833L34.9367 3.42667Z" fill="#4C5567"/>
</svg>
