<svg width="34" height="28" viewBox="0 0 34 28" fill="none" xmlns="http://www.w3.org/2000/svg">
<path d="M32.905 4.83002C33.6667 7.80002 33.6667 14 33.6667 14C33.6667 14 33.6667 20.2 32.905 23.17C32.4817 24.8117 31.2433 26.1034 29.675 26.54C26.8267 27.3334 17 27.3334 17 27.3334C17 27.3334 7.17834 27.3334 4.32501 26.54C2.75001 26.0967 1.51334 24.8067 1.09501 23.17C0.333344 20.2 0.333344 14 0.333344 14C0.333344 14 0.333344 7.80002 1.09501 4.83002C1.51834 3.18835 2.75668 1.89669 4.32501 1.46002C7.17834 0.666687 17 0.666687 17 0.666687C17 0.666687 26.8267 0.666687 29.675 1.46002C31.25 1.90335 32.4867 3.19335 32.905 4.83002ZM13.6667 19.8334L23.6667 14L13.6667 8.16669V19.8334Z" fill="#4C5567"/>
</svg>
